<?xml version="1.0" standalone="no"?>
<!DOCTYPE svg PUBLIC "-//W3C//DTD SVG 20010904//EN"
 "http://www.w3.org/TR/2001/REC-SVG-20010904/DTD/svg10.dtd">
<svg version="1.0" xmlns="http://www.w3.org/2000/svg"
 width="1080.000000pt" height="1080.000000pt" viewBox="0 0 1080.000000 1080.000000"
 preserveAspectRatio="xMidYMid meet">
<metadata>
Created by potrace 1.14, written by Peter Selinger 2001-2017
</metadata>
<g transform="translate(0.000000,1080.000000) scale(0.100000,-0.100000)"
fill="#000000" stroke="none">
<path d="M6810 7469 c-840 -12 -891 -14 -901 -30 -11 -18 -11 -46 0 -53 4 -3
33 -46 62 -96 30 -50 68 -114 86 -143 36 -60 86 -146 116 -199 11 -21 36 -52
54 -70 l34 -33 914 -5 915 -5 29 -30 30 -30 6 -230 c4 -126 9 -349 10 -495 1
-146 6 -285 9 -310 l8 -45 -49 -15 c-42 -14 -88 -14 -388 -4 -187 7 -586 13
-886 13 -342 1 -557 5 -575 11 -38 14 -51 34 -192 312 -67 130 -143 278 -171
330 -57 108 -84 159 -107 208 -10 19 -43 85 -74 145 -31 61 -97 187 -145 280
-213 412 -234 451 -260 470 -26 19 -45 20 -658 23 -364 2 -965 -4 -1417 -13
-432 -9 -830 -16 -885 -16 -140 -1 -173 -7 -190 -32 -11 -17 -17 -97 -25 -337
-6 -173 -15 -400 -20 -505 -22 -412 -29 -611 -31 -878 l-2 -278 27 -27 26 -27
910 -3 910 -2 17 -27 c17 -25 18 -101 20 -1233 l1 -1205 33 -17 c31 -16 112
-18 1180 -18 1072 0 1149 2 1168 18 l22 17 0 809 c1 789 0 809 -19 835 -19 26
-20 26 -158 24 -163 -1 -297 -25 -324 -58 -17 -20 -19 -91 -20 -595 0 -393 -2
-468 -14 -486 -22 -32 -82 -35 -372 -19 -143 8 -398 17 -568 21 -301 7 -309 8
-335 30 l-26 22 0 1226 0 1225 -21 21 c-21 21 -22 21 -891 20 -546 0 -880 3
-896 9 -56 21 -56 24 -59 434 l-3 377 28 27 27 28 1090 3 c949 2 1094 0 1119
-13 31 -16 101 -139 258 -450 83 -165 158 -310 258 -500 32 -60 114 -220 182
-355 68 -135 127 -252 133 -260 5 -8 19 -36 30 -61 11 -25 33 -61 49 -80 l29
-34 1399 0 c1298 0 1401 1 1425 17 15 10 27 29 30 46 2 17 2 535 0 1153 l-5
1123 -28 28 -27 28 -699 -2 c-384 -1 -925 -5 -1203 -9z"/>
</g>
</svg>
